<?xml version="1.0" encoding="UTF-8" standalone="no"?>
<!-- Svg Vector Icons : http://www.onlinewebfonts.com/icon -->

<svg
   version="1.1"
   x="0px"
   y="0px"
   viewBox="0 0 256 256"
   enable-background="new 0 0 256 256"
   xml:space="preserve"
   id="svg226"
   sodipodi:docname="java-modern.svg"
   inkscape:version="1.2.2 (b0a8486541, 2022-12-01)"
   xmlns:inkscape="http://www.inkscape.org/namespaces/inkscape"
   xmlns:sodipodi="http://sodipodi.sourceforge.net/DTD/sodipodi-0.dtd"
   xmlns="http://www.w3.org/2000/svg"
   xmlns:svg="http://www.w3.org/2000/svg"><defs
   id="defs230" /><sodipodi:namedview
   id="namedview228"
   pagecolor="#EB4034"
   bordercolor="#EB4034"
   borderopacity="0.25"
   inkscape:showpageshadow="2"
   inkscape:pageopacity="0.0"
   inkscape:pagecheckerboard="0"
   inkscape:deskcolor="#d1d1d1"
   showgrid="false"
   inkscape:zoom="3.0546875"
   inkscape:cx="128.16368"
   inkscape:cy="115.23274"
   inkscape:window-width="2560"
   inkscape:window-height="995"
   inkscape:window-x="0"
   inkscape:window-y="0"
   inkscape:window-maximized="1"
   inkscape:current-layer="g222" />
<metadata
   id="metadata140"> Svg Vector Icons : http://www.onlinewebfonts.com/icon </metadata>
<g
   id="g224"><g
     id="g222"
     style="fill:#bf2b21;fill-opacity:1"><path
       fill="#bf2b21"
       d="m 122.89016,100.19476 c 0,0 -15.83674,-16.900351 -15.35317,-29.209677 0.48356,-8.782856 36.50912,-17.499183 50.65339,-30.141182 14.14426,-12.642 -1.81337,-24.951315 -1.81337,-24.951315 0,0 3.50585,9.115547 -5.92366,18.497241 -9.42951,9.381694 -44.24617,14.904252 -57.785974,31.139235 -13.418922,16.168451 30.222784,34.665698 30.222784,34.665698 z"
       id="path142"
       style="fill:#bf2b21;fill-opacity:1;stroke-width:0.896868" /><path
       fill="#grey"
       d="m 182.36861,51.351489 c 0,0 -54.15924,11.959343 -54.15924,25.597191 0,13.637862 14.74872,18.04393 17.04566,22.519948 2.41782,4.476002 -4.1103,11.959342 -4.1103,11.959342 0,0 21.15595,-8.53239 17.6501,-18.393611 -3.50584,-9.861218 -20.06793,-12.938474 -10.63842,-22.869629 6.40723,-6.714013 34.2122,-18.813241 34.2122,-18.813241 z"
       id="path144"
       style="fill:#bf2b21;fill-opacity:1;stroke-width:0.919503"
       inkscape:highlight-color="#aaaaaa" /><path
       fill="#bf2b21"
       d="m 116.9665,132.75845 c 50.04893,-1.89324 68.3035,-18.3013 68.3035,-18.3013 -32.39883,9.21376 -118.473334,8.58268 -119.07779,1.89324 -0.604456,-6.81566 26.475166,-12.36915 26.475166,-12.36915 0,0 -42.432798,0 -45.938641,11.10699 -3.384952,10.98078 20.188822,19.43724 70.237765,17.67022 z"
       id="path146"
       style="fill:#bf2b21;fill-opacity:1;stroke-width:1.23525" /><path
       fill="#bf2b21"
       d="m 189.50119,158.63269 c 0,0 49.0818,-10.85456 44.12527,-38.74826 -5.92367,-33.825844 -40.01497,-14.76725 -40.01497,-14.76725 0,0 24.17823,0 26.47516,15.39833 2.41782,15.39833 -30.58546,38.11718 -30.58546,38.11718 z"
       id="path148"
       style="fill:#bf2b21;fill-opacity:1;stroke-width:1.23525" /><path
       fill="#bf2b21"
       d="m 165.32296,143.86544 c 0,0 -12.3309,3.40783 -30.70636,5.5535 -24.5409,2.90296 -54.159234,0.63108 -56.577057,-3.66026 -2.296932,-4.29134 4.110299,-6.68944 4.110299,-6.68944 -29.497441,7.32052 -13.298027,20.32075 21.155958,22.71885 29.61833,2.14567 73.62271,-9.21376 73.62271,-9.21376 z"
       id="path150"
       style="fill:#bf2b21;fill-opacity:1;stroke-width:1.23525" /><path
       fill="#bf2b21"
       d="m 89.282423,170.74941 c 0,0 -13.418921,0.37865 -14.144268,7.82539 -0.725347,7.32052 8.220598,13.88374 41.223885,16.02941 33.00328,2.01945 56.21439,-9.46619 56.21439,-9.46619 l -14.99051,-9.46619 c 0,0 -9.42951,2.01946 -23.93644,4.16513 -14.50694,2.01945 -44.367057,-1.64081 -45.575972,-4.54377 -1.08802,-2.90297 1.208915,-4.54378 1.208915,-4.54378 z"
       id="path152"
       style="fill:#bf2b21;fill-opacity:1;stroke-width:1.23525" /><path
       fill="#bf2b21"
       d="m 217.78972,203.94418 c 5.07742,-5.80593 -1.57159,-10.22348 -1.57159,-10.22348 0,0 2.41782,2.90296 -0.72535,6.18457 -3.14317,3.28162 -31.79437,11.48565 -77.73301,13.88375 -45.938632,2.3981 -95.866681,-4.54377 -97.438266,-10.72835 -1.571585,-6.18458 25.508033,-11.10699 25.508033,-11.10699 -3.14317,0.37864 -40.861209,1.26215 -42.070121,11.86428 -1.208911,10.60214 16.562088,19.31103 87.162524,19.31103 70.72132,0.12621 101.66946,-13.5051 106.86778,-19.18481 z"
       id="path154"
       style="fill:#007396;fill-opacity:1;stroke-width:1.23525" /><path
       fill="#007396"
       d="m 190.22653,228.17762 c -31.06902,6.56323 -125.243231,2.3981 -125.243231,2.3981 0,0 61.291821,15.1459 131.166901,2.52432 33.36596,-6.05836 35.42111,-22.97128 35.42111,-22.97128 0,0 -10.27575,11.48564 -41.34478,18.04886 z"
       id="path156"
       style="fill:#007396;fill-opacity:1;stroke-width:1.23525" /><g
       id="g160"
       style="fill:#007396;fill-opacity:1" /><g
       id="g162"
       style="fill:#007396;fill-opacity:1" /><g
       id="g164"
       style="fill:#007396;fill-opacity:1" /><g
       id="g166"
       style="fill:#007396;fill-opacity:1" /><g
       id="g168"
       style="fill:#007396;fill-opacity:1" /><g
       id="g170"
       style="fill:#007396;fill-opacity:1" /><g
       id="g172"
       style="fill:#007396;fill-opacity:1" /><g
       id="g174"
       style="fill:#007396;fill-opacity:1" /><g
       id="g176"
       style="fill:#007396;fill-opacity:1" /><g
       id="g178"
       style="fill:#007396;fill-opacity:1" /><g
       id="g180"
       style="fill:#007396;fill-opacity:1" /><g
       id="g182"
       style="fill:#007396;fill-opacity:1" /><g
       id="g184"
       style="fill:#007396;fill-opacity:1" /><g
       id="g186"
       style="fill:#007396;fill-opacity:1" /><g
       id="g188"
       style="fill:#007396;fill-opacity:1" /><g
       id="g192"
       style="fill:#007396;fill-opacity:1" /><g
       id="g194"
       style="fill:#007396;fill-opacity:1" /><g
       id="g196"
       style="fill:#007396;fill-opacity:1" /><g
       id="g198"
       style="fill:#007396;fill-opacity:1" /><g
       id="g200"
       style="fill:#007396;fill-opacity:1" /><g
       id="g202"
       style="fill:#007396;fill-opacity:1" /><g
       id="g204"
       style="fill:#007396;fill-opacity:1" /><g
       id="g206"
       style="fill:#007396;fill-opacity:1" /><g
       id="g208"
       style="fill:#007396;fill-opacity:1" /><g
       id="g210"
       style="fill:#007396;fill-opacity:1" /><g
       id="g212"
       style="fill:#007396;fill-opacity:1" /><g
       id="g214"
       style="fill:#007396;fill-opacity:1" /><g
       id="g216"
       style="fill:#007396;fill-opacity:1" /><g
       id="g218"
       style="fill:#007396;fill-opacity:1" /><g
       id="g220"
       style="fill:#007396;fill-opacity:1" /></g></g>
</svg>
